<?xml version="1.0" encoding="utf-8"?>
<!-- Generator: Adobe Illustrator 19.2.1, SVG Export Plug-In . SVG Version: 6.00 Build 0)  -->
<!DOCTYPE svg PUBLIC "-//W3C//DTD SVG 1.1//EN" "http://www.w3.org/Graphics/SVG/1.1/DTD/svg11.dtd">
<svg version="1.1" id="CoC" xmlns="http://www.w3.org/2000/svg" xmlns:xlink="http://www.w3.org/1999/xlink" x="0px" y="0px"
	 viewBox="0 0 217 102.9" style="enable-background:new 0 0 217 102.9;" xml:space="preserve">
<style type="text/css">
	.st0{fill:#C8102E;}
	.st1{fill:#4B4F55;}
	.st2{fill:#FFFFFF;}
</style>
<g>
	<rect class="st0" width="159.3" height="102.9"/>
	<rect x="162.8" class="st1" width="54.2" height="102.9"/>
	<g>
		<g>
			<path class="st2" d="M38.1,81.4c-1.1,0.5-3.8,1.2-7.1,1.2c-9.6,0-14.7-5.8-14.7-13.6c0-9.2,6.8-14.3,15.3-14.3
				c3.3,0,5.7,0.6,6.9,1.2l-1.3,4.8c-1.2-0.5-3-1-5.3-1c-5,0-8.8,2.9-8.8,8.9c0,5.4,3.3,8.8,8.9,8.8c1.9,0,4-0.4,5.3-0.9L38.1,81.4z
				"/>
			<path class="st2" d="M51.2,72.8c-3.3,0-5.9,0.8-5.9,3.1c0,1.6,1.1,2.3,2.5,2.3c1.5,0,2.9-1,3.3-2.2c0.1-0.3,0.1-0.7,0.1-1
				C51.2,75,51.2,72.8,51.2,72.8z M57.4,77.4c0,1.8,0.1,3.6,0.3,4.7h-5.7l-0.4-2h-0.1c-1.3,1.6-3.4,2.4-5.8,2.4
				c-4.1,0-6.5-2.9-6.5-6c0-5.1,4.7-7.4,12-7.4v-0.2c0-1.1-0.6-2.5-3.7-2.5c-2.1,0-4.3,0.7-5.6,1.5l-1.2-3.9
				c1.4-0.8,4.2-1.8,7.9-1.8c6.7,0,8.8,3.8,8.8,8.4v6.8H57.4z"/>
		</g>
		<rect x="59.1" y="53.7" class="st2" width="6.3" height="28.4"/>
		<g>
			<path class="st2" d="M80.7,70.5c0-0.4,0-0.8-0.1-1.1c-0.5-1.6-1.7-2.7-3.4-2.7c-2.3,0-4.1,2-4.1,5.5c0,2.9,1.5,5.2,4.1,5.2
				c1.7,0,2.9-1,3.3-2.4c0.2-0.5,0.2-1.1,0.2-1.6V70.5z M87,79.3c0,3.7-0.8,6.8-3.1,8.8c-2.2,1.8-5.2,2.4-8.2,2.4
				c-2.7,0-5.5-0.5-7.3-1.5l1.2-4.6c1.3,0.7,3.5,1.5,5.9,1.5c3,0,5.2-1.5,5.2-5.1v-1.2h-0.1c-1.2,1.6-3.1,2.5-5.5,2.5
				c-5,0-8.6-3.9-8.6-9.5c0-6.3,4.2-10.3,9.2-10.3c2.8,0,4.5,1.2,5.5,2.8h0.1l0.2-2.3H87c-0.1,1.3-0.2,2.9-0.2,5.8v10.7H87z"/>
			<path class="st2" d="M100.4,72.8c-3.3,0-5.9,0.8-5.9,3.1c0,1.6,1.1,2.3,2.5,2.3c1.5,0,2.9-1,3.3-2.2c0.1-0.3,0.1-0.7,0.1-1V72.8z
				 M106.5,77.4c0,1.8,0.1,3.6,0.3,4.7h-5.7l-0.4-2h-0.1c-1.3,1.6-3.4,2.4-5.8,2.4c-4.1,0-6.5-2.9-6.5-6c0-5.1,4.7-7.4,12-7.4v-0.2
				c0-1.1-0.6-2.5-3.7-2.5c-2.1,0-4.3,0.7-5.6,1.5l-1.2-3.9c1.4-0.8,4.2-1.8,7.9-1.8c6.7,0,8.8,3.8,8.8,8.4v6.8H106.5z"/>
			<path class="st2" d="M108.2,69c0-2.9,0-4.7-0.2-6.4h5.4l0.2,3.6h0.2c1-2.9,3.5-4.1,5.5-4.1c0.6,0,0.9,0,1.3,0.1v5.7
				c-0.5-0.1-1-0.2-1.7-0.2c-2.3,0-3.9,1.2-4.3,3.1c-0.1,0.4-0.1,0.9-0.1,1.4v9.9h-6.3V69z"/>
			<path class="st2" d="M128.7,62.6l3,9.6c0.3,1.1,0.7,2.6,1,3.6h0.2c0.2-1.1,0.6-2.5,0.9-3.7l2.5-9.6h6.7l-4.7,12.9
				c-2.9,7.8-4.8,10.9-7.1,12.9c-2.2,1.8-4.5,2.5-6,2.7l-1.4-5.1c0.8-0.2,1.8-0.5,2.7-1c1-0.5,2-1.5,2.6-2.4
				c0.2-0.3,0.3-0.6,0.3-0.9c0-0.2,0-0.5-0.2-1l-7.4-17.9C121.8,62.6,128.7,62.6,128.7,62.6z"/>
		</g>
	</g>
	<rect x="159.3" class="st2" width="3.4" height="102.9"/>
	<g>
		<path class="st2" d="M190.8,52.5l-0.6-7.1l-0.6,7.1C190,52.4,190.4,52.4,190.8,52.5"/>
		<path class="st2" d="M199.5,77.7L199.5,77.7c0-0.2,0-0.4-0.1-0.5c-0.1-0.1-0.3-0.2-0.5-0.3c-0.1,0-0.1,0-0.2,0l-0.2,1.5h0.1
			C199.2,78.5,199.5,78.2,199.5,77.7"/>
		<path class="st2" d="M188.3,52.6l-1.8-5.2l0.7,5.4C187.6,52.7,187.9,52.7,188.3,52.6"/>
		<path class="st2" d="M194,47.5l-1.7,5.1c0.4,0.1,0.7,0.1,1.1,0.2L194,47.5z"/>
		<path class="st2" d="M181.5,77c-0.1-0.1-0.2-0.1-0.3-0.1c0,0,0,0-0.1,0c-0.1,0-0.2,0.1-0.3,0.2c-0.1,0.2-0.2,0.4-0.1,0.7
			c0.1,0.5,0.3,0.7,0.6,0.7s0.5-0.4,0.4-0.8C181.7,77.4,181.6,77.2,181.5,77"/>
		<path class="st2" d="M195.9,76.9c0-0.1,0-0.1-0.1-0.2s-0.2-0.1-0.3-0.1s-0.1,0-0.2,0v0.5h0.2C195.8,77.2,195.9,77.1,195.9,76.9"/>
		<path class="st2" d="M197,67.3c0-0.1,0-0.2-0.1-0.3c0-0.1-0.9-2.5-0.9-3.3c0-0.5,0.1-0.9,0.3-1.5h-12.2c0.2,0.5,0.3,1,0.3,1.5
			c0,0.9-0.9,3.2-0.9,3.3c0,0.1-0.1,0.2-0.1,0.3c-0.3,1.7,0,2.7,0.7,3.3c0.5,0.4,5.4,3.5,6,3.5s5.5-3.1,6-3.5
			C196.9,70,197.3,69,197,67.3z M192.2,70.6l-1.7-0.2v1.5h-0.1h-0.5l0,0l0.1-1.5l-1.7,0.2l0.2-0.7v-0.1l-1.8-1.5l0.5-0.3l0,0v-0.1
			l-0.3-1.2L188,67l0.2-0.7l0.9,1l0,0v-0.1l-0.4-2l0.7,0.4c0.1,0,0.1,0,0.1,0l0,0l0.7-1.4l0.7,1.4l0,0c0,0,0,0,0.1,0l0.7-0.4l-0.4,2
			v0.1l0,0l0.9-1.1l0.2,0.7l1.1-0.2l-0.3,1.2V68l0,0l0.5,0.3l-1.8,1.5v0.1L192.2,70.6z"/>
		<path class="st2" d="M185.8,53.3l-2.1-3.4l1.2,3.9C185.1,53.6,185.5,53.5,185.8,53.3"/>
		<path class="st2" d="M202.5,72.3c-0.3,0-1.2,0-1.3,0c-0.1,0-0.2,0-0.3,0.1c-0.1,0.1-0.2,0.2-0.2,0.3c0,0.2-0.2,0.5-0.4,0.7
			c-0.2,0.2-0.6,0.8-0.7,1.1c0.1,0,0.3,0,1-0.2c0.3-0.1,0.6-0.2,0.7-0.3c0,0,0-0.1,0-0.2s0.1-0.3,0.1-0.3c0-0.1,0.1-0.5,0.6-0.5h0.2
			c1.3,0,2.1,0,2.2,0c0.1,0,0.3-0.1,0.3-0.2c0,0,0,0,0-0.1c-0.3-0.4-0.6-1.1-0.7-1.7c0-0.3,0-0.5,0.1-0.7c0.1-0.2,0.3-0.4,0.5-0.6
			l0.1-0.1c0.2-0.2,0.5-0.6,0.5-0.8c0,0,0-0.2-0.2-0.2c-0.9-0.4-2.2-0.9-3.2-1.5c0.2,0.7,0.1,1.2-0.2,1.5c-0.4,0.4-0.1,1,0.2,1.6
			c0.1,0.2,0.3,0.4,0.4,0.6l0,0c0.4,0.7,0.7,1,0.5,1.3C202.8,72.2,202.7,72.2,202.5,72.3"/>
		<path class="st2" d="M192.3,76.9c0-0.1,0-0.1-0.1-0.2c0,0.1,0,0.2-0.1,0.2c0,0.1-0.1,0.3-0.1,0.4c0.1,0,0.2,0,0.4,0L192.3,76.9z"
			/>
		<path class="st2" d="M200.4,57.6C200.4,57.6,200.3,57.6,200.4,57.6c-0.3,0-0.5-0.1-0.5-0.2c0-0.1,0-0.1,0-0.1
			c0.2-0.4,0.5-0.5,0.8-0.4c0.1,0.1,0.2,0.1,0.2,0.2C200.7,57.4,200.5,57.5,200.4,57.6 M212.2,63.3c-0.1-0.5-0.4-0.7-0.7-1
			c-0.2-0.1-0.3-0.2-0.4-0.4c-0.1-0.1-0.3-0.3-0.5-0.5c-0.5-0.5-1.3-1.4-2-1.4c-0.4,0-0.6,0.1-0.8,0.3c-0.2,0.2-0.3,0.6-0.3,1
			c0,0.6,0.7,1.4,1.3,2c0.6,0.7,1.3,1.2,1.3,1.9c0,0.6-0.7,1-0.9,0.9c-0.3-0.2-2.8-3.5-3.4-6.1c-0.7-2.8-1-3.5-2-4
			c-0.3-0.2-0.4-0.3-0.6-0.3c-0.1-0.1-0.2-0.1-0.3-0.2l0,0l0,0c-0.1-0.1-0.1-0.2-0.1-0.3v-0.1c-0.2-0.4-0.7-0.2-0.7-0.2
			c-0.7,0.2-1.8,0.3-3.2,0.1c1.1,0.8,2.6,0.5,2.6,0.5s0.1,0,0.2,0v0.1c-0.1,0.2-0.7,0.4-1.3,0.5c-0.3,0-0.3,0.1-0.4,0.4
			c0,0.1-0.1,0.2-0.1,0.3l0,0c-0.2,0.4-1.1,1.7-1.2,2.2c0,0.1,0,0.2,0.1,0.3c0.2,0.3,0.5,0.6,0.7,0.7l0,0c0.1,0,0.2-0.1,0.3-0.2
			c0.2-0.3,1-0.3,1.2-0.3c0.2,0,0.7-0.1,1.1-0.7c0.1-0.2,0.3,0.1,0.3,0.2c0,0.2-0.6,0.8-1.3,1.1c0,0-0.4,0.1-0.6,0.4
			s-0.4,0.8-0.4,1.1c0.1,0,0.5,0,1-0.2l0,0c0.1,0,0.1,0,0.1,0.1c0,0,0,0.1,0,0.2c-0.1,0.2-0.4,0.4-0.9,0.4c-0.2,0-1.9,0-2.3,0.5
			c-0.1,0.1-0.1,0.2-0.1,0.4c0.1,0.8,0.3,1.7,0.6,2.6c0.1,0.2,0.3,0.8,0.7,1c0,0,0.3-0.3,0.4-0.7c0.1-0.4-0.1-0.8-0.2-0.9h-0.1
			c-0.2,0-0.3,0-0.3-0.1c-0.1-0.1-0.1-0.3-0.1-0.5c0-0.1,0.1-0.2,0-0.3c0-0.1-0.1-0.1-0.1-0.2c-0.1-0.1-0.1-0.3-0.1-0.4
			c0.1-0.2,0.5-0.2,0.6-0.2c0.3,0,0.6,0.2,1,0.3c0.2,0,0.3,0.1,0.5,0.1c0.4,0,1,0.2,1.3,0s0.5-0.7,0.6-0.8c0-0.1,0.2-0.3,0.2-0.2
			c0.1,0,0.1,0.2,0.1,0.2c0,0.3,0,1.2-0.5,1.5c-0.2,0.1-0.5,0.2-0.8,0.2l0,0c-0.5,0-0.8-0.1-1.1-0.2c0.6,1.5,2.2,2.3,3.9,3
			c1.1,0.5,2,0.9,2.1,1.6c0,0.1,0,0.2,0,0.4c-0.1,0.8-0.6,2.2,0.9,3.8c0.3,0.4,1.1,1.6,0.3,2.9c-0.1,0.1-0.2,0.4-0.4,0.5
			c-0.2,0.2-0.9,0.7-0.9,0.8c0.1,0.2,0.8,0.2,1.1,0.2s0.6,0,0.7-0.2v-0.2c0-0.2,0-0.4,0.2-0.5c0.1-0.1,0.1-0.9,0.2-1.2
			c0.1-0.6,0.1-0.9,0.2-1.1c0.1-0.1,0.1-0.2,0.2-0.3c0.1-0.2,0.3-0.4,0.3-0.5c0-0.1-0.1-0.2-0.2-0.3c-0.2-0.3-0.4-0.7-0.2-1.1
			c0.2-0.4,0.4-0.7,0.5-0.9l0,0c0.1-0.2,0.2-0.3,0.3-0.5c0.2-0.4,0.6-1.5,0.6-2.1c0-0.1-0.1-0.4-0.5-1.4v-0.1l0.1-0.1
			c0.2-0.2,0.8-0.9,0.8-1.5c0.1-0.8-0.8-1.7-1.5-2.4c-0.6-0.6-1.1-1.1-1.2-1.7c-0.1-0.3,0-0.6,0.2-0.8c0.1-0.1,0.3-0.2,0.4-0.2
			c0.5,0,1.6,0.9,2.1,1.5c0.2,0.2,0.2,0.5,0.2,0.7c0,0.2,0,0.4,0,0.6s0.1,0.3,0.2,0.4c0.1,0.1,0.2,0.3,0.3,0.6
			c0.2-0.3,0.1-0.4,0.2-0.5c0.1-0.2,0.2-0.2,0.2,0c-0.1,0.7,0.1,1.2,0.3,1.4l0.1,0.1c-0.1-0.3,0-0.6,0.1-0.9
			C212.1,64,212.2,63.6,212.2,63.3"/>
		<path class="st2" d="M178.8,56.9c0.2-0.1,0.6-0.1,0.8,0.4v0.1c-0.1,0.1-0.2,0.2-0.4,0.2h-0.1c-0.1,0-0.3-0.1-0.5-0.4
			C178.5,57,178.7,56.9,178.8,56.9 M173.4,76.6L173.4,76.6c-0.3-0.1-0.3-0.3-0.3-0.5c0-0.1,0-0.2-0.1-0.3c-0.1-0.1-0.1-1.4-0.1-1.5
			c0.1-0.9,0.7-1.7,1.3-2.3c0.6-0.7,1.1-1.3,0.9-2c0-0.1-0.1-0.2-0.1-0.3c-0.1-0.3-0.3-0.7,0-1.1c0.5-0.7,1.3-1,2.2-1.4
			c2.8-1.1,3.2-3,3.1-3.2c-0.1-0.2-0.3-0.2-0.8,0c-0.4,0.2-0.7,0.2-1,0.2c-0.7,0-0.9-0.6-0.9-0.7c0-0.1,0.1-0.1,0.1-0.1
			c0.1,0,0.7,0.5,1.7,0c0.8-0.4,2.2-0.3,2.6,0c0.1,0.1,0.2,0.9-0.2,1.2c-0.2,0.2-0.2,0.4-0.2,0.5c0,0.2-0.2,0.3-0.4,0.3h-0.1
			c-0.2,0-0.6,0.1-0.6,0.2c-0.1,0.1,0.1,0.7,0.2,1.1c0.1,0.3,0.3,0.5,0.3,0.6c0.1,0,0.4-0.2,0.5-0.3c0.1-0.1,0.2-0.1,0.3-0.2
			c0.2-0.2,0.3-0.5,0.6-0.7c0.1-0.1,0.1-0.1,0.2-0.1c0.1-0.1,0.7-1.9,0.7-2.6c0-0.6-0.9-0.9-1.2-1c-0.2,0-2.9-0.8-3-0.8
			c-0.6-0.1-0.7-0.8-0.6-0.8c0.1,0,0.1,0.2,0.6,0.4c0.1,0,1.2,0.4,1.5,0.5c-0.2-0.7-1.3-1.2-3-2.3c-0.6-0.4-0.8-0.8-0.8-1.2
			c0-0.2,0.1-0.3,0.1-0.3l0,0c0.5,1.1,1.3,1,1.5,1s0.3,0,0.4,0c0,0,0,0,0.1,0c0.1,0.1,0.3,0.2,0.8,0.4c0.1,0,0.5,0.4,0.5,0.4
			s0.1,0.1,0.2,0.1c0.1,0,0.2,0,0.2-0.1c0,0,0,0,0-0.1c-0.3-0.3-0.2-0.6-0.2-0.6c0.2-0.1,0.6,0.2,0.7,0.2c0.1,0.1,0.2,0.1,0.2,0.1
			c0.1,0,0.7-0.2,0.5-0.7c-0.1-0.1-0.2-0.3-0.6-0.6c-0.4-0.4-0.9-1-1-1.3c-0.2-0.4-0.4-0.7-0.8-0.8l-0.1-0.1c0-0.1,0.2-0.2,0.4-0.3
			c0.2-0.1,0.4-0.2,0.4-0.3l0,0c-0.1-0.1-0.4-0.2-0.7-0.2s-0.5,0.1-0.6,0.2l0,0l0,0c-0.2-0.1-0.5-0.1-1.1-0.1h-0.1
			c-0.4,0-0.7,0.1-0.9,0.3c-0.2,0.1-0.4,0.2-0.6,0.2c-0.1,0-0.3,0-0.4-0.1c-0.1,0.2,0,0.4,0.2,0.6l0.1,0.1h-0.1
			c-0.4,0.1-0.6,0.3-0.7,0.5c-0.1,0.2-0.2,0.4-0.6,0.4c-0.1,0-0.3,0-0.5-0.1l0,0c0,0.2,0,0.3,0,0.4c0.1,0.2,0.3,0.3,0.7,0.3h0.1
			l-0.1,0.1c-0.6,0.4-0.7,1.2-0.7,1.9c-0.1,0.5-0.1,1-0.4,1.2c0.2,0.1,0.3,0.1,0.4,0.1c0.2,0,0.2-0.1,0.3-0.2c0,0,0-0.1,0.1-0.1l0,0
			l0,0c0.1,0.1,0.3,0.8,0.2,1.5c0,0.4-0.2,1-0.7,1.3c0.1,0.1,0.5,0,0.7-0.1c0.3-0.2,0.5-0.4,0.6-0.7c0.1-0.1,0.2-0.5,0.3-0.5
			c0.1,0,0.2,0.2,0.2,0.2c0.1,0.7-0.8,1.9-2,2.6c-2,1.1-2.2,2.4-2.3,2.9v0.1h-0.1c-0.3-0.2-0.4-0.5-0.4-0.7c0-0.7,0.4-1.4,0.9-2.2
			c0.4-0.7,0.8-1.4,0.9-2.1c0.2-1.6-0.3-2.4-0.6-2.9c-0.1-0.2-0.2-0.4-0.2-0.5c0-0.2,0.1-0.3,0.3-0.3c0.2,0,0.3,0.1,0.4,0.2
			c0,0,0.1,0,0.1-0.1c0-0.1,0-0.2-0.1-0.3c-0.2-0.2-0.5-0.4-0.9-0.4l0,0c-0.6,0-0.9,0.9-1,1.4l0,0l0,0c-0.1,0-0.1,0-0.2,0
			c-1.5,0-2,1.6-2.1,2.6c0,0.5,0,0.9,0.1,1.3c0.1,0.5,0.1,0.8,0,1.2c-0.1,0.2-0.3,0.2-0.4,0.1c-0.1,0-0.1,0-0.2,0c0,0,0,0,0,0.1
			c0,0,0,0.1,0.1,0.1c0.1,0.1,0.4,0.3,0.7,0.2c0.3-0.1,0.5-0.9,0.6-1.4c0-0.2,0.1-0.3,0.1-0.4c0-0.1,0.1-0.2,0.1-0.1
			c0.1,0,0.1,0.2,0.2,0.7c0,0.1,0.1,0.1,0.1,0.1s0.1,0,0.1-0.1s0.1-0.2,0.1-0.4c0.1-0.4,0.1-0.8,0.6-0.8c0.1,0,0.1,0,0.1,0.1
			c0.1,0.2,0.1,0.7-0.2,1.6c-0.2,0.8-0.5,1.7-0.5,2.3c0.1,1.3,0.9,1.6,1.1,1.7l0,0l0,0c0.1,0.5,0.3,1.1,0.6,1.7
			c0.5,1.1,0.6,2,0.3,2.7l0,0c-0.1,0.1-0.1,0.2-0.2,0.4c0,0.1,0,0.3,0.1,0.4c0.3,0.3,0.1,1.2-0.1,1.8c0,0.1,0.1,0.4,0.3,0.5
			c0.1,0,0.1,0.4,0.1,0.6c0,0.3,0,0.5,0.1,0.7l0,0c0.2,0,0.4,0,0.6,0c0.6,0,1.1-0.1,1.2-0.1l0,0v-0.1
			C173.9,77.4,173.5,76.8,173.4,76.6"/>
		<path class="st2" d="M179.2,80.5l-0.4,0.1l-0.3-2c-1.5,0.2-3,0.4-4.4,0.6c1,0.8,2.1,1.5,3.1,2.3c2.1-0.3,4.1-0.6,6.2-0.8
			c-0.3-0.2-0.6-0.4-0.9-0.6C181.4,80.2,180.3,80.4,179.2,80.5"/>
		<path class="st2" d="M178.9,74.1c0.1,0.1,1.3,0.3,1.6,0.3c0-0.2-0.2-0.9-0.3-1.1c-0.1-0.1-0.1-0.1-0.1-0.1
			c-0.1-0.1-0.3-0.1-0.5-0.4c-0.1-0.2-0.3-0.3-0.6-0.4c-0.6-0.2-1.7-0.6-1.7-0.9s0.3-0.7,0.5-1c0.4-0.4,0.7-0.9,0.6-1.4l0,0
			c-0.1-0.3-0.2-0.7-0.5-1.1c-0.1-0.2-0.4-0.3-0.7-0.2c-1.6,0.5-1.9,1.2-1.9,1.3c0,0.1,0.1,0.2,0.3,0.3c0.5,0.4,1.1,0.9,0.2,2.8
			c0,0.1,0,0.1,0,0.2c0,0.1,0.2,0.1,0.3,0.1c0.7-0.1,1.6,0.3,1.9,0.6c0.2,0.2,0.3,0.2,0.4,0.2l0,0c0.1,0,0.1,0,0.1,0.1
			c0.1,0.1,0.1,0.3,0.1,0.4C178.9,73.8,178.9,74,178.9,74.1"/>
		<path class="st2" d="M195.2,58.7c-0.6,0.1-1.2,0.2-1.8,0.2c-1.6,0-2.8-0.4-3.1-0.6c-0.3,0.2-1.6,0.6-3.1,0.6
			c-0.6,0-1.2-0.1-1.8-0.2c-0.1,0-0.3,0-0.3,0.2c-0.4,0.9-0.9,1.5-1.2,1.9l0.2,0.7l2.3-0.9l1.7,0.8l2.4-1.6l2.3,1.6l1.6-0.8l2.4,0.9
			l0.2-0.7c-0.3-0.4-0.8-1-1.2-1.9C195.5,58.8,195.3,58.7,195.2,58.7"/>
		<path class="st2" d="M194.3,82.1c-0.2-1.1-1-1.9-1-1.9s-1.8,1.6-3.1,2.8c-1.3-1.1-3.1-2.8-3.1-2.8s-0.8,0.8-1,1.9
			c-0.2,0.8-0.5,1-0.5,1l1.4,1.2c0,0,0.5-0.5,0.6-1.2c0.1-0.9,0.7-1.4,0.7-1.4s0.9,0.8,1.7,1.5c-0.5,0.5-1,0.8-1,0.9
			c0,0-0.1,0.1,0,0.2c0.1,0.1,0.2,0.1,0.2,0c0,0,0.5-0.4,1-0.9c0.5,0.5,1,0.9,1,0.9s0.1,0,0.2,0c0.1-0.1,0-0.1,0-0.2
			c0,0-0.4-0.4-1-0.9c0.8-0.7,1.7-1.5,1.7-1.5s0.6,0.6,0.7,1.4c0.1,0.7,0.6,1.2,0.6,1.2l1.4-1.2C194.9,83.2,194.5,83,194.3,82.1"/>
		<path class="st2" d="M190.5,75.8L190.5,75.8c-0.3,0.9-0.5,1.8-0.7,2.6v0.1h-0.1c-0.2,0-0.4,0-0.6,0H189v-0.1
			c-0.1-0.4-0.2-0.7-0.2-1.1c0-0.1,0-0.2-0.1-0.3c0,0.1,0,0.2-0.1,0.3c-0.1,0.4-0.1,0.7-0.2,1.1v0.1h-0.1c-0.2,0-0.4,0-0.6,0h-0.1
			v-0.1c-0.2-0.8-0.5-1.7-0.7-2.5v-0.1h0.1c0.2,0,0.4,0,0.6,0h0.1v0.1c0.1,0.3,0.2,0.7,0.2,1c0,0.2,0.1,0.3,0.1,0.5
			c0-0.2,0.1-0.3,0.1-0.5c0.1-0.3,0.1-0.7,0.2-1v-0.1h0.1c0.2,0,0.4,0,0.6,0h0.1v0.1c0.1,0.3,0.1,0.7,0.2,1c0,0.1,0.1,0.3,0.1,0.4
			c0-0.1,0-0.2,0-0.2V77c0.1-0.3,0.1-0.7,0.2-1v-0.1h0.1C190,75.8,190.2,75.8,190.5,75.8L190.5,75.8z M191,78.4
			c0.3-0.8,0.5-1.7,0.8-2.5l0,0h0.1c0.3,0,0.5,0,0.8,0h0.1v0.1c0.2,0.8,0.5,1.7,0.7,2.5v0.1h-0.1c-0.2,0-0.4,0-0.6,0h-0.1v-0.1
			c-0.1-0.2-0.1-0.4-0.2-0.6c-0.2,0-0.4,0-0.6,0c-0.1,0.2-0.1,0.4-0.2,0.6v0.1h-0.1C191.5,78.5,191.3,78.5,191,78.4L191,78.4
			L191,78.4z M194.7,75.9L194.7,75.9c0.3,0,0.6,0,0.9,0c0.4,0,0.7,0.1,0.9,0.3c0.2,0.1,0.2,0.4,0.2,0.6c0,0.3-0.2,0.5-0.4,0.6
			c0.1,0.1,0.2,0.2,0.2,0.5c0,0.1,0,0.2,0,0.2l0,0c0,0.2,0.1,0.4,0.1,0.4v0.1h-0.1c-0.2,0-0.4,0-0.6,0l0,0l0,0
			c0-0.1-0.1-0.3-0.1-0.6c0-0.3-0.1-0.4-0.3-0.4h-0.1l-0.1,1h-0.1c-0.2,0-0.4,0-0.6,0h-0.1L194.7,75.9z M198,76.3L198,76.3
			c0.3,0,0.6,0,0.9,0c0.5,0.1,0.8,0.2,1.1,0.4c0.3,0.3,0.4,0.6,0.3,1c-0.1,0.6-0.4,0.8-0.6,1c-0.2,0.1-0.5,0.2-0.9,0.2
			c-0.1,0-0.2,0-0.4,0c-0.3,0-0.5-0.1-0.7-0.1h-0.1L198,76.3z M185.9,78.6c-0.2,0-0.4,0-0.6,0l0,0l0,0c-0.2-0.3-0.4-0.6-0.6-0.9
			c-0.1-0.2-0.3-0.4-0.4-0.6c0,0.2,0.1,0.5,0.1,0.8l0.1,0.8h-0.1c-0.2,0-0.3,0-0.5,0h-0.1v-0.2l-0.2-2.4h0.1c0.2,0,0.5,0,0.7-0.1
			l0,0l0,0c0.2,0.3,0.4,0.6,0.6,0.9c0.1,0.1,0.2,0.3,0.3,0.5c0-0.2,0-0.4-0.1-0.6l-0.1-0.8h0.1c0.2,0,0.4,0,0.5,0h0.1v0.1
			L185.9,78.6L185.9,78.6z M181.3,79.1c-0.1,0-0.1,0-0.2,0c-0.7,0-1.2-0.5-1.3-1.2c-0.1-0.4,0-0.8,0.2-1c0.2-0.3,0.5-0.4,0.9-0.5
			c0.4,0,0.7,0,1,0.2c0.3,0.2,0.4,0.5,0.5,0.9C182.6,78.4,182.1,79,181.3,79.1 M179,76.3l0.5,3.5c3.5-0.5,7-0.8,10.5-0.8
			s7.1,0.3,10.5,0.8l0.5-3.5C193.9,75.1,186.4,75.1,179,76.3"/>
		<path class="st2" d="M187,57.9c1-0.6,2.1-0.8,3.3-0.8s2.2,0.2,3.3,0.8c0.4-0.7,1.5-2.6,1.6-2.8c-0.3-0.2-0.6-0.3-0.9-0.5h-0.1
			c-0.1,0.3-0.2,0.6-0.4,0.9c-0.3-0.1-0.7-0.3-1-0.4c0.1-0.3,0.2-0.6,0.3-0.9c-0.4-0.1-0.7-0.2-1.1-0.2c-0.1,0.3-0.1,0.6-0.2,0.9
			c-0.3-0.1-0.7-0.1-1-0.1c0-0.3,0-0.6,0-0.9c-0.4,0-0.7,0-1.1,0c0,0.3,0,0.6,0,0.9c-0.3,0-0.7,0.1-1,0.1c-0.1-0.3-0.1-0.6-0.2-0.9
			c-0.4,0.1-0.7,0.1-1.1,0.2c0.1,0.3,0.2,0.6,0.3,0.9c-0.3,0.1-0.7,0.2-1,0.4c-0.1-0.3-0.2-0.6-0.4-0.8h-0.1
			c-0.3,0.1-0.6,0.3-0.9,0.5C185.5,55.3,186.6,57.2,187,57.9"/>
		<path class="st2" d="M201.3,80.6l-0.4-0.1c-1-0.2-2.1-0.3-3.2-0.4l0,0c-0.3,0.2-0.6,0.4-0.8,0.6c2.1,0.2,4.2,0.5,6.2,0.8
			c1-0.8,2-1.6,3.1-2.3c-1.5-0.2-3.1-0.4-4.6-0.6L201.3,80.6z"/>
		<path class="st2" d="M196.8,50l-2.1,3.3c0.3,0.1,0.7,0.3,1,0.5L196.8,50z"/>
	</g>
</g>
</svg>
